#define restart_width 17
#define restart_height 17
static unsigned char restart_bits[] = {
   0x00, 0x00, 0x00, 0x00, 0x00, 0x00, 0x00, 0x00, 0x00, 0x00, 0x00, 0x00,
   0x00, 0x00, 0x00, 0xa0, 0x03, 0x00, 0x60, 0x04, 0x00, 0xe0, 0x08, 0x00,
   0x00, 0x08, 0x00, 0x00, 0x08, 0x00, 0x40, 0x04, 0x00, 0x80, 0x03, 0x00,
   0x00, 0x00, 0x00, 0x00, 0x00, 0x00, 0x00, 0x00, 0x00, 0x00, 0x00, 0x00,
   0x00, 0x00, 0x00 };
