<svg xmlns="http://www.w3.org/2000/svg" width="512" height="512" shape-rendering="crispEdges" viewBox="0 0 135.467 135.467"><defs/><path fill="orange" d="M8.467 133.35h-6.35v-10.584h12.7v10.584zm14.817 0h-6.35v-4.234h12.7v4.234zm14.816 0h-6.35V114.3h12.7v19.05zm14.817 0h-6.35v-2.117h12.7v2.117zm14.817 0h-6.35V97.366h12.7v35.984zm14.816 0H76.2v-16.934h12.7v16.934zm14.817 0h-6.35v-25.4h12.7v25.4zm14.817 0h-6.35v-8.467h12.7v8.467zm14.816 0h-6.35v-23.284h12.7v23.284z"/><path fill="#dc143c" d="M52.917 131.233h-6.35V107.95h12.7v23.283zm-29.633-2.117h-6.35V99.483h12.7v29.633zm74.083-21.166h-6.35v-12.7h12.7v12.7zM67.734 97.366h-6.35V74.083h12.7v23.283z"/><path fill="#228b22" d="M112.184 124.883h-6.35v-69.85h12.7v69.85zM8.467 122.766h-6.35v-69.85h12.7v69.85zm74.083-6.35H76.2V38.1h12.7v78.316zM38.1 114.3h-6.35V10.583h12.7V114.3zm88.9-4.234h-6.35V29.633h12.7v80.433z"/><path d="M67.734 135.466H0V50.8h16.934v46.566h12.7v-88.9h16.933v97.367h12.7V71.966h14.817V35.983h16.933v57.15h12.7V52.916h14.817v-25.4h16.933v107.95zM8.467 133.35h6.35V52.916h-12.7v80.434zm14.817 0h6.35V99.483h-12.7v33.867zm14.816 0h6.35V10.583h-12.7V133.35zm14.817 0h6.35v-25.4h-12.7v25.4zm14.817 0h6.35V74.083h-12.7v59.267zm14.816 0h6.35V38.1H76.2v95.25zm14.817 0h6.35v-38.1h-12.7v38.1zm14.817 0h6.35V55.033h-12.7v78.317zm14.816 0h6.35V29.633h-12.7V133.35z"/></svg>