<svg xmlns="http://www.w3.org/2000/svg" width="512" height="512" shape-rendering="crispEdges"><defs/><path fill="#b8dbfd" d="M448 496h-40v-16h80v16zM84 456H56v-16h56v16zm108 0h-40v-16h80v16zm144 0h-24v-16h48v16zm112 0h-40v-16h80v16z"/><path fill="#be8ffe" d="M320 496h-88v-16h176v16z"/><path fill="#188efd" d="M124 496H16v-16h216v16zm-88-40H16v-16h40v16zm116 0h-8v-18.666664l8 .20832V448zm136 0h-24v-16h48v16zm112 0h-8v-16h16v16z"/><path fill="#fda300" d="M28 416H16v-48h24v48zm32 0H48v-24h24v24zm32 0H80v-88h24v88zm32 0h-12v-72h24v72zm32 0h-12v-16h24v16zm32 0h-12v-56h24v56zm32 0h-12v-40h24v40zm32 0h-12v-16h24v16zm32 0h-12v-72h24v72zm31.614584 0H304v-8h24v8zM348 416h-12V280h24v136zm32 0h-12v-64h24v64zm32 0h-12v-96h24v96zm32 0h-12v-32h24v32zm32 0h-12v-88h24v88z"/><path fill="#da123a" d="M316 408h-12v-88h24v88zm-160-8h-12v-24h24v24zm96 0h-12V288h24v112zM92 328H80v-40h24v40zm320-8h-12v-48h24v48zm-64-40h-12v-88h24v88z"/><path fill="#208920" d="M60 392H48V192h24v200zm384-8h-12V120h24v264zm-224-8h-12V112h24v264zm-192-8H16V48h24v320zm160-8h-12V248h24v112zm192-8h-12V56h24v296zm-256-8h-12V80h24v264zm160 0h-12V16h24v328zm192-16h-12V40h24v288z"/><path d="M252 504H8v-32h488v32zm0-8h236v-16H16v16zM64 464H8v-32h112v32zm0-8h48v-16H16v16zm124 8h-52v-32h104v32zm0-8h44v-16h-88v16zm124 8h-56v-32h112v32zm0-8h48v-16h-96v16zm128 8h-56v-32h112v32zm0-8h48v-16h-96v16zm-188-32H8V40h40v144h32v96h24V72h40v296h24V240h32V104h40v176h24V8h40v304h24V184h32V48h40v216h24V112h32V32h40v392zm-224-8h12V48H16v368zm32 0h12V192H48v224zm32 0h12V288H80v128zm32 0h12V80h-24v336zm32 0h12v-40h-24v40zm32 0h12V248h-24v168zm32 0h12V112h-24v304zm32 0h12V288h-24v128zm32 0h12V16h-24v400zm32 0h12v-96h-24v96zm32 0h12V192h-24v224zm32 0h12V56h-24v360zm32 0h12V272h-24v144zm32 0h12V120h-24v296zm32 0h12V40h-24v376z"/></svg>